<svg width="25" height="25" viewBox="0 0 25 25" fill="none" xmlns="http://www.w3.org/2000/svg">
<g clip-path="url(#clip0_1424_11958)">
<path d="M24.8035 12.7338C24.8035 11.7095 24.7204 10.9621 24.5405 10.187H12.8447V14.8099H19.7099C19.5715 15.9588 18.8241 17.6889 17.1631 18.8515L17.1399 19.0063L20.8379 21.8711L21.0941 21.8966C23.447 19.7236 24.8035 16.5262 24.8035 12.7338Z" fill="#4285F4"/>
<path d="M12.8451 24.9142C16.2085 24.9142 19.0321 23.8069 21.0945 21.8969L17.1636 18.8517C16.1116 19.5853 14.6998 20.0974 12.8451 20.0974C9.55096 20.0974 6.75506 17.9244 5.7584 14.9209L5.61231 14.9333L1.76708 17.9092L1.7168 18.049C3.76527 22.1182 7.973 24.9142 12.8451 24.9142Z" fill="#34A853"/>
<path d="M5.75802 14.9209C5.49504 14.1458 5.34285 13.3153 5.34285 12.4572C5.34285 11.599 5.49504 10.7685 5.74418 9.99343L5.73722 9.82835L1.8438 6.80469L1.71642 6.86528C0.872142 8.55392 0.387695 10.4502 0.387695 12.4572C0.387695 14.4641 0.872142 16.3603 1.71642 18.049L5.75802 14.9209Z" fill="#FBBC05"/>
<path d="M12.8451 4.8167C15.1843 4.8167 16.7621 5.8271 17.6618 6.67147L21.1775 3.23884C19.0183 1.23187 16.2085 0 12.8451 0C7.973 0 3.76527 2.7959 1.7168 6.86517L5.74456 9.99332C6.75506 6.98979 9.55096 4.8167 12.8451 4.8167Z" fill="#EB4335"/>
</g>
<defs>
<clipPath id="clip0_1424_11958">
<rect width="24.4275" height="25" fill="white" transform="translate(0.387695)"/>
</clipPath>
</defs>
</svg>
